<svg width="507" height="283" viewBox="0 0 507 283" fill="none" xmlns="http://www.w3.org/2000/svg">
<path d="M506.81 264.378C506.815 266.787 506.335 269.172 505.4 271.385C504.465 273.598 503.095 275.591 501.375 277.241C498.43 280.097 494.628 281.858 490.583 282.241C489.827 282.306 489.068 282.306 488.312 282.241L361.587 279.637C356.728 279.583 352.082 277.597 348.637 274.1C345.192 270.603 343.22 265.873 343.141 260.914C343.131 258.505 343.604 256.119 344.53 253.903C345.455 251.687 346.815 249.687 348.524 248.025C352.043 244.611 356.732 242.741 361.587 242.817H365.899C365.007 239.624 364.552 236.32 364.546 233C364.539 228.255 365.481 223.557 367.315 219.196C369.149 214.835 371.836 210.902 375.211 207.638C378.189 204.731 381.643 202.378 385.416 200.685C390.305 198.511 395.597 197.445 400.929 197.561L411.695 197.795C418.393 197.934 424.932 199.907 430.627 203.508C436.322 207.108 440.966 212.204 444.072 218.262C447.177 216.755 450.585 216.015 454.022 216.101H456.803C462.571 216.161 468.088 218.515 472.181 222.664C476.274 226.812 478.62 232.426 478.719 238.312V239.38C478.717 241.409 478.425 243.426 477.852 245.369L488.338 245.577C493.208 245.644 497.86 247.645 501.309 251.155C504.757 254.665 506.73 259.408 506.81 264.378V264.378Z" fill="white"/>
<path d="M490.583 282.241C489.827 282.306 489.068 282.306 488.312 282.241L361.587 279.637C356.728 279.583 352.082 277.597 348.637 274.1C345.192 270.603 343.22 265.873 343.141 260.915C343.131 258.505 343.604 256.12 344.53 253.903C345.455 251.687 346.815 249.687 348.524 248.025C343.421 279.975 376.206 275.392 376.206 275.392H458.538L490.583 282.241Z" fill="url(#paint0_linear_17_4664)"/>
<path d="M375.185 246.671L365.975 243.104C365.083 239.91 364.628 236.607 364.623 233.287C364.616 228.541 365.558 223.844 367.392 219.483C369.225 215.122 371.912 211.189 375.287 207.924C378.266 205.017 381.72 202.664 385.493 200.972C360.005 223.262 375.185 246.671 375.185 246.671Z" fill="url(#paint1_linear_17_4664)"/>
<path d="M163.704 218.705C163.706 221.111 163.228 223.493 162.298 225.705C161.368 227.917 160.006 229.912 158.295 231.568C155.347 234.419 151.547 236.179 147.503 236.568C146.747 236.607 145.989 236.607 145.232 236.568L18.5069 233.964C13.6417 233.91 8.98917 231.921 5.53928 228.419C2.0894 224.918 0.114581 220.18 0.0351036 215.215C0.0327865 212.809 0.51123 210.427 1.4412 208.215C2.37118 206.003 3.73317 204.008 5.44397 202.352C7.17868 200.65 9.22545 199.313 11.467 198.42C13.7086 197.526 16.1009 197.092 18.5069 197.144H22.8186C21.9148 193.945 21.4595 190.631 21.4664 187.301C21.4578 182.555 22.3993 177.857 24.2332 173.496C26.0671 169.135 28.7547 165.202 32.1311 161.939C35.106 159.034 38.561 156.689 42.3365 155.012C47.2242 152.836 52.5172 151.769 57.8487 151.888L68.6154 152.122C75.2718 152.248 81.7752 154.182 87.4566 157.724C93.138 161.267 97.7923 166.289 100.941 172.276C104.054 170.794 107.457 170.055 110.891 170.115H113.672C119.438 170.189 124.949 172.552 129.036 176.704C133.122 180.855 135.464 186.469 135.563 192.353V193.42C135.573 195.44 135.289 197.449 134.721 199.383L145.207 199.618C150.133 199.666 154.842 201.699 158.306 205.274C161.771 208.849 163.711 213.676 163.704 218.705V218.705Z" fill="white"/>
<path d="M147.503 236.568C146.747 236.607 145.989 236.607 145.232 236.568L18.5069 233.964C13.6417 233.91 8.98917 231.921 5.53928 228.419C2.0894 224.918 0.114581 220.18 0.0351036 215.215C0.0327865 212.809 0.51123 210.427 1.4412 208.215C2.37118 206.003 3.73317 204.008 5.44397 202.352C0.46884 234.276 33.1261 229.719 33.1261 229.719H115.458L147.503 236.568Z" fill="url(#paint2_linear_17_4664)"/>
<path d="M32.0035 200.998L22.8187 197.43C21.9148 194.231 21.4595 190.917 21.4664 187.588C21.4578 182.842 22.3993 178.144 24.2332 173.783C26.0671 169.421 28.7547 165.488 32.1311 162.225C35.106 159.32 38.561 156.975 42.3365 155.299C16.8995 177.588 32.0035 200.998 32.0035 200.998Z" fill="url(#paint3_linear_17_4664)"/>
<path d="M497.982 67.3636C497.984 69.7727 497.503 72.1567 496.568 74.369C495.634 76.5812 494.265 78.5748 492.548 80.227C489.589 83.0783 485.781 84.8381 481.73 85.2266C480.974 85.2927 480.215 85.2927 479.459 85.2266L352.759 82.6227C347.936 82.5568 343.325 80.586 339.895 77.1241C336.465 73.6622 334.482 68.9785 334.364 64.0566C334.337 61.6255 334.802 59.2148 335.728 56.9748C336.654 54.7349 338.022 52.7136 339.747 51.0369C343.277 47.6238 347.974 45.7548 352.836 45.829H357.122C356.23 42.6359 355.775 39.3324 355.77 36.0121C355.763 31.2664 356.705 26.5692 358.539 22.2081C360.372 17.8471 363.059 13.914 366.434 10.6498C369.41 7.73878 372.864 5.38533 376.64 3.69723C381.527 1.51815 386.82 0.451846 392.152 0.572502L402.919 0.806857C409.575 0.932307 416.078 2.86881 421.756 6.41641C427.434 9.96401 432.082 14.9941 435.219 20.9874C438.324 19.4832 441.732 18.743 445.169 18.8261H447.95C453.718 18.8863 459.235 21.2409 463.328 25.3891C467.421 29.5372 469.767 35.1516 469.866 41.0377V42.1054C469.864 44.1342 469.572 46.1518 468.999 48.0944L479.485 48.3027C484.403 48.3643 489.099 50.398 492.56 53.9644C496.021 57.5309 497.969 62.3439 497.982 67.3636V67.3636Z" fill="white"/>
<path d="M481.755 85.2266C481 85.2927 480.24 85.2927 479.485 85.2266L352.785 82.6227C347.957 82.5635 343.339 80.5957 339.904 77.1331C336.468 73.6705 334.482 68.983 334.364 64.0566C334.337 61.6255 334.802 59.2148 335.728 56.9749C336.654 54.7349 338.022 52.7136 339.747 51.0369C334.645 82.9872 367.429 78.4043 367.429 78.4043H449.761L481.755 85.2266Z" fill="url(#paint4_linear_17_4664)"/>
<path d="M366.281 49.6568L357.071 46.0894C356.179 42.8963 355.724 39.5928 355.719 36.2726C355.711 31.5268 356.654 26.8296 358.487 22.4685C360.321 18.1075 363.008 14.1744 366.383 10.9102C369.359 7.99919 372.813 5.64574 376.589 3.95764C351.177 26.2474 366.281 49.6568 366.281 49.6568Z" fill="url(#paint5_linear_17_4664)"/>
<defs>
<linearGradient id="paint0_linear_17_4664" x1="422.054" y1="340.309" x2="410.018" y2="188.381" gradientUnits="userSpaceOnUse">
<stop offset="0.01"/>
<stop offset="0.13" stop-opacity="0.69"/>
<stop offset="0.25" stop-opacity="0.32"/>
<stop offset="1" stop-opacity="0"/>
</linearGradient>
<linearGradient id="paint1_linear_17_4664" x1="307.269" y1="258.493" x2="438.654" y2="198.596" gradientUnits="userSpaceOnUse">
<stop offset="0.01"/>
<stop offset="0.13" stop-opacity="0.69"/>
<stop offset="0.25" stop-opacity="0.32"/>
<stop offset="1" stop-opacity="0"/>
</linearGradient>
<linearGradient id="paint2_linear_17_4664" x1="78.9738" y1="294.636" x2="66.9113" y2="142.682" gradientUnits="userSpaceOnUse">
<stop offset="0.01"/>
<stop offset="0.13" stop-opacity="0.69"/>
<stop offset="0.25" stop-opacity="0.32"/>
<stop offset="1" stop-opacity="0"/>
</linearGradient>
<linearGradient id="paint3_linear_17_4664" x1="-35.8368" y1="212.794" x2="95.5733" y2="152.922" gradientUnits="userSpaceOnUse">
<stop offset="0.01"/>
<stop offset="0.13" stop-opacity="0.69"/>
<stop offset="0.25" stop-opacity="0.32"/>
<stop offset="1" stop-opacity="0"/>
</linearGradient>
<linearGradient id="paint4_linear_17_4664" x1="413.252" y1="143.294" x2="401.189" y2="-8.63338" gradientUnits="userSpaceOnUse">
<stop offset="0.01"/>
<stop offset="0.13" stop-opacity="0.69"/>
<stop offset="0.25" stop-opacity="0.32"/>
<stop offset="1" stop-opacity="0"/>
</linearGradient>
<linearGradient id="paint5_linear_17_4664" x1="298.441" y1="61.4787" x2="429.826" y2="1.58168" gradientUnits="userSpaceOnUse">
<stop offset="0.01"/>
<stop offset="0.13" stop-opacity="0.69"/>
<stop offset="0.25" stop-opacity="0.32"/>
<stop offset="1" stop-opacity="0"/>
</linearGradient>
</defs>
</svg>
