<svg width="780" height="600" viewBox="0 0 780 600" fill="none" xmlns="http://www.w3.org/2000/svg">
<path d="M594.81 388.378C594.815 390.787 594.335 393.172 593.4 395.385C592.465 397.598 591.095 399.591 589.375 401.241C586.43 404.097 582.628 405.858 578.583 406.241C577.827 406.306 577.068 406.306 576.312 406.241L449.587 403.637C444.728 403.583 440.082 401.597 436.637 398.1C433.192 394.603 431.22 389.873 431.141 384.914C431.131 382.505 431.604 380.119 432.53 377.903C433.456 375.687 434.815 373.687 436.524 372.025C440.043 368.611 444.732 366.741 449.587 366.817H453.899C453.007 363.624 452.552 360.32 452.546 357C452.539 352.255 453.481 347.557 455.315 343.196C457.149 338.835 459.836 334.902 463.211 331.638C466.189 328.731 469.643 326.378 473.416 324.685C478.305 322.511 483.597 321.445 488.929 321.561L499.695 321.795C506.393 321.934 512.932 323.907 518.627 327.508C524.322 331.108 528.966 336.204 532.072 342.262C535.177 340.755 538.585 340.015 542.022 340.101H544.803C550.571 340.161 556.088 342.515 560.181 346.664C564.274 350.812 566.62 356.426 566.719 362.312V363.38C566.717 365.409 566.425 367.426 565.852 369.369L576.338 369.577C581.208 369.644 585.86 371.645 589.309 375.155C592.757 378.665 594.73 383.408 594.81 388.378V388.378Z" fill="white"/>
<path d="M578.583 406.241C577.827 406.306 577.068 406.306 576.312 406.241L449.587 403.637C444.728 403.583 440.082 401.597 436.637 398.1C433.192 394.603 431.22 389.873 431.141 384.915C431.131 382.505 431.604 380.12 432.53 377.903C433.455 375.687 434.815 373.687 436.524 372.025C431.421 403.975 464.206 399.392 464.206 399.392H546.538L578.583 406.241Z" fill="url(#paint0_linear_2_3082)"/>
<path d="M463.185 370.671L453.975 367.104C453.083 363.91 452.628 360.607 452.623 357.287C452.616 352.541 453.558 347.844 455.392 343.483C457.225 339.122 459.912 335.189 463.287 331.924C466.266 329.017 469.72 326.664 473.493 324.972C448.005 347.262 463.185 370.671 463.185 370.671Z" fill="url(#paint1_linear_2_3082)"/>
<path opacity="0.23" d="M309.441 570.185C398.974 570.185 471.554 503.278 471.554 420.745C471.554 338.211 398.974 271.305 309.441 271.305C219.909 271.305 147.328 338.211 147.328 420.745C147.328 503.278 219.909 570.185 309.441 570.185Z" fill="#2DB716"/>
<path d="M510.717 395.981C510.76 430.675 499.696 464.434 479.208 492.119V492.119L478.876 492.587C456.426 522.786 424.19 543.855 387.923 552.034C351.657 560.213 313.723 554.968 280.896 537.235C248.07 519.503 222.488 490.438 208.72 455.232C194.952 420.026 193.894 380.972 205.736 345.043C217.578 309.115 241.548 278.653 273.365 259.097C305.182 239.542 342.774 232.166 379.428 238.288C416.081 244.41 449.409 263.63 473.459 292.517C497.508 321.403 510.714 358.075 510.717 395.981V395.981Z" fill="#9FD5D1"/>
<path d="M303.752 317.368C295.154 320.988 285.663 321.847 276.835 324.816C268.007 327.784 259.154 333.773 256.883 343.043C255.71 347.704 256.322 352.886 254.077 357.104C251.092 362.781 244.101 364.916 239.866 369.603C231.804 378.665 237.11 394.211 246.959 401.215C256.807 408.22 269.385 409.287 281.172 411.344C284.398 411.607 287.472 412.85 290 414.912C296.863 421.604 289.26 433.712 292.169 442.93C293.801 448.138 298.623 451.706 300.818 456.705C305.027 466.236 298.649 476.755 294.439 486.286C286.846 503.673 286.16 523.388 292.526 541.281C292.232 541.713 291.908 542.122 291.556 542.505C274.766 534.985 259.389 524.534 246.117 511.622C233.181 493.108 222.95 472.928 224.022 450.742C224.609 438.712 228.538 427.098 229.278 415.12C230.502 395.669 223.614 374.551 232.952 357.573C238.054 348.173 248.005 337.861 242.443 328.747C232.62 330.206 222.032 330.44 213.026 326.951C224.077 303.454 240.59 283.07 261.125 267.576C281.66 252.082 305.596 241.946 330.847 238.052C340.542 266.331 332.837 304.869 303.752 317.368Z" fill="url(#paint2_linear_2_3082)"/>
<path d="M510.717 395.981C510.728 406.091 509.796 416.179 507.936 426.109C503.776 429.561 499.878 433.33 496.276 437.384C483.902 452.174 481.223 472.693 479.208 492.067C479.208 492.483 479.208 492.9 479.08 493.29C479.08 493.03 479.08 492.796 478.876 492.535C477.892 487.56 475.767 482.893 472.676 478.917C469.156 475.037 462.905 473.11 458.618 476.157C456.577 470.949 454.528 465.784 452.47 460.663C439.713 460.663 426.548 460.663 414.557 456.054C402.565 451.445 392.641 442.618 383.048 433.999C384.307 419.064 384.033 404.036 382.231 389.159C419.496 385.031 453.965 367.038 479.055 338.616C456.616 337.475 434.368 343.333 415.271 355.412C411.189 358.016 407.056 360.932 402.285 361.349C399.262 361.426 396.246 361.004 393.355 360.099L362.509 352.105C358.657 331.846 372.408 311.509 390.089 301.484C403.356 293.985 419.455 295.443 432.187 288.881C440.912 284.402 443.463 276.565 451.092 270.81H451.245C469.776 285.735 484.754 304.751 495.055 326.43C505.355 348.109 510.71 371.888 510.717 395.981Z" fill="url(#paint3_linear_2_3082)"/>
<path d="M402.591 363.614C401.672 366.687 400.805 370.28 402.591 372.858C403.468 373.961 404.624 374.798 405.933 375.28C407.457 376.022 409.152 376.32 410.832 376.141C412.511 375.962 414.109 375.312 415.45 374.264C416.85 372.701 417.841 370.802 418.333 368.744C420.718 361.273 422.426 353.593 423.435 345.803C423.627 345.087 423.627 344.332 423.435 343.616C423.037 342.865 422.397 342.276 421.624 341.949C417.567 339.736 411.214 337.965 408.867 342.861C405.984 349.162 404.632 356.948 402.591 363.614Z" fill="#FBC4D6"/>
<path d="M414.863 367.182C415.72 367.062 416.592 367.142 417.414 367.416C417.974 367.733 418.461 368.168 418.843 368.692L427.645 378.769C429.355 380.722 431.141 383.404 429.941 385.722C429.519 386.367 428.961 386.907 428.307 387.303C427.654 387.7 426.922 387.942 426.165 388.013C421.902 388.411 417.616 387.553 413.817 385.539C411.112 384.342 408.433 382.936 405.806 381.634C403.853 380.729 402.146 379.352 400.83 377.623C398.815 374.499 398.279 366.999 401.8 364.604C403.611 363.432 405.193 364.265 406.903 365.072C409.346 366.431 412.08 367.156 414.863 367.182V367.182Z" fill="#2DB716"/>
<path d="M451.373 397.934C451.441 398.514 451.38 399.101 451.194 399.653C450.89 400.188 450.449 400.629 449.918 400.929C448.245 402.105 446.284 402.781 444.254 402.882C443.241 402.921 442.232 402.72 441.307 402.295C440.382 401.871 439.566 401.234 438.922 400.434C437.983 398.919 437.414 397.195 437.264 395.408C436.516 391.567 436.149 387.659 436.167 383.743C436.122 383.513 436.127 383.275 436.182 383.047C436.236 382.82 436.338 382.607 436.482 382.423C436.625 382.24 436.806 382.09 437.011 381.986C437.217 381.881 437.442 381.823 437.672 381.816C440.836 381.139 447.137 379.446 448.745 383.404C450.382 388.071 451.27 392.978 451.373 397.934V397.934Z" fill="#FBC4D6"/>
<path d="M464.767 397.544C467.486 397.693 470.173 398.219 472.753 399.106C474.036 399.559 475.214 400.276 476.214 401.212C477.215 402.148 478.017 403.283 478.57 404.548C479.085 405.787 479.149 407.172 478.749 408.454C477.868 410.356 476.32 411.852 474.411 412.647C465.344 417.565 455.114 419.81 444.867 419.13C442.237 419.238 439.669 418.305 437.697 416.526C436.274 414.376 435.609 411.796 435.809 409.209L435.452 396.971C437.761 397.076 440.014 397.726 442.035 398.872C445.811 400.174 447.291 397.049 450.403 396.268C454.46 395.304 460.634 397.127 464.767 397.544Z" fill="#2DB716"/>
<path d="M414.863 367.182C415.72 367.062 416.592 367.142 417.414 367.416C417.974 367.733 418.461 368.168 418.843 368.692L427.645 378.769C429.355 380.722 431.141 383.404 429.941 385.722C429.519 386.367 428.961 386.907 428.307 387.303C427.654 387.7 426.922 387.942 426.165 388.013C421.902 388.411 417.616 387.553 413.817 385.539C411.112 384.342 408.433 382.936 405.806 381.634C403.853 380.729 402.146 379.352 400.83 377.623C398.815 374.499 398.279 366.999 401.8 364.604C403.611 363.432 405.193 364.265 406.903 365.072C409.346 366.431 412.08 367.156 414.863 367.182V367.182Z" fill="url(#paint4_linear_2_3082)"/>
<path d="M464.767 397.544C467.486 397.693 470.173 398.219 472.753 399.106C474.036 399.559 475.214 400.276 476.214 401.212C477.215 402.148 478.017 403.283 478.57 404.548C479.085 405.787 479.149 407.172 478.749 408.454C477.868 410.356 476.32 411.852 474.411 412.647C465.344 417.565 455.114 419.81 444.867 419.13C442.237 419.238 439.669 418.305 437.697 416.526C436.274 414.376 435.609 411.796 435.809 409.209L435.452 396.971C437.761 397.076 440.014 397.726 442.035 398.872C445.811 400.174 447.291 397.049 450.403 396.268C454.46 395.304 460.634 397.127 464.767 397.544Z" fill="url(#paint5_linear_2_3082)"/>
<path d="M319.417 264.951C313.929 264.465 308.406 264.552 302.935 265.211C302.22 265.249 301.526 265.473 300.92 265.862C300.571 266.197 300.292 266.601 300.099 267.048C299.906 267.495 299.804 267.978 299.797 268.466C299.032 276.018 304.9 282.58 311.227 286.564C328.347 297.396 349.931 296.979 368.837 304.062C370.64 304.55 372.242 305.618 373.404 307.109C374.192 308.724 374.578 310.513 374.526 312.317C375.368 322.498 380.905 331.664 382.741 341.689C384.578 351.714 382.614 362.208 384.119 372.311C390.319 365.567 400.882 364.5 407.081 357.833C412.898 351.688 414.047 342.522 414.914 334.033L417.261 310.754C417.696 309.075 417.516 307.292 416.756 305.739C415.995 304.186 414.705 302.97 413.128 302.317C385.216 283.908 352.508 267.867 319.417 264.951Z" fill="url(#paint6_linear_2_3082)"/>
<path d="M432.289 262.607C434.867 263.135 437.257 264.368 439.203 266.175C441.198 269.01 442.106 272.493 441.754 275.966C441.694 300.673 437.116 325.153 428.257 348.147C428.174 348.955 427.898 349.73 427.454 350.404C427.009 351.078 426.409 351.631 425.707 352.014C425.004 352.397 424.221 352.598 423.425 352.6C422.628 352.603 421.844 352.406 421.139 352.027C415.834 350.565 410.605 348.827 405.474 346.819L412.414 299.948C412.745 298.647 412.674 297.274 412.209 296.016C411.697 295.124 410.979 294.373 410.117 293.829C402.202 287.952 393.841 282.728 385.114 278.205C378.149 274.612 370.163 270.393 368.275 262.79C367.884 261.49 367.804 260.114 368.044 258.777C368.284 257.44 368.836 256.181 369.653 255.108C370.756 254.002 372.055 253.118 373.48 252.504C378.098 250.187 383.915 247.296 389.222 247.765C393.483 248.208 395.115 250.707 398.662 252.556C408.51 257.556 421.598 259.431 432.289 262.607Z" fill="#282328"/>
<path d="M384.885 188.057C388.303 197.665 389.987 207.847 392.998 217.559C393.657 220.134 394.839 222.538 396.468 224.616C398.632 226.735 401.254 228.304 404.122 229.199C408.119 230.779 412.184 232.159 416.317 233.339C419.073 234.094 422.364 235.396 422.67 238.261C422.735 239.216 422.541 240.171 422.109 241.021C421.043 242.961 419.507 244.589 417.649 245.752C415.791 246.914 413.673 247.571 411.495 247.661C407.149 247.78 402.82 247.055 398.738 245.526C395.022 244.758 391.612 242.882 388.941 240.135C387.423 237.851 386.357 235.286 385.803 232.584C381.616 217.415 375.807 202.762 368.479 188.89C366.288 185.226 364.572 181.287 363.377 177.172C361.693 169.985 361.667 152.955 368.939 159.205C374.807 164.257 382.308 180.922 384.885 188.057Z" fill="#FBC4D6"/>
<path d="M357.049 261.696C361.35 259.995 365.535 258.003 369.576 255.733C384.885 247.088 372.357 242.844 367.255 232.454C363.606 225.085 365.086 216.257 366.974 208.263C370.316 194.202 374.781 179.62 371.566 165.585C371.165 163.307 370.295 161.141 369.015 159.231C368.079 158.046 366.999 156.987 365.8 156.08C362.569 153.231 358.849 151.015 354.83 149.544C347.176 146.94 338.501 148.841 331.23 152.565C302.655 167.199 296.557 204.149 297.705 233.704C298.011 241.906 299.261 250.577 304.44 256.853C309.62 263.128 316.942 265.524 324.443 266.461C335.53 267.618 346.726 265.982 357.049 261.696Z" fill="white"/>
<path d="M314.442 244.979C314.672 247.752 315.547 250.43 316.993 252.791C319.544 256.462 324.239 257.816 328.551 258.884L347.967 263.779C350.333 264.511 352.791 264.888 355.263 264.899C360.57 264.638 365.137 261.175 369.347 257.842C370.423 257.091 371.356 256.147 372.102 255.056C361.387 254.014 350.696 252.921 340.032 251.332C333.756 250.395 327.122 249.093 322.504 244.692C320.118 242.287 318.303 239.357 317.197 236.125C316.432 234.12 316.075 229.017 313.855 228.574C313.296 234.043 313.494 239.566 314.442 244.979V244.979Z" fill="url(#paint7_linear_2_3082)"/>
<path d="M352.763 172.433C352.761 173.254 352.44 174.041 351.87 174.62C351.34 174.939 350.72 175.067 350.11 174.985C348.11 174.889 346.154 174.357 344.373 173.425C342.592 172.493 341.028 171.182 339.785 169.58C338.542 167.979 337.65 166.124 337.169 164.142C336.688 162.159 336.629 160.093 336.996 158.085C337.455 155.481 338.552 153.242 339.241 150.794C340.593 145.899 340.363 140.378 343.4 136.342C346.028 142.481 349.028 148.446 352.38 154.205C353.237 155.351 353.833 156.676 354.124 158.086C354.416 159.496 354.395 160.955 354.064 162.356L352.763 172.433Z" fill="#FBC4D6"/>
<path d="M354.268 159.83L353.12 167.642C353.12 167.642 339.981 161.002 341.69 148.685C343.4 136.368 354.268 159.83 354.268 159.83Z" fill="url(#paint8_linear_2_3082)"/>
<path d="M369.627 152.226C368.954 154.729 367.525 156.952 365.545 158.58C364.601 159.233 363.545 159.701 362.433 159.96C358.526 160.734 354.479 160.226 350.873 158.509C347.266 156.793 344.284 153.955 342.354 150.404C340.534 146.806 339.496 142.85 339.311 138.805C339.127 134.761 339.799 130.723 341.282 126.968C342.496 122.85 345.244 119.381 348.936 117.308C350.954 116.495 353.138 116.206 355.293 116.465C357.448 116.724 359.506 117.523 361.285 118.792C366.117 122.236 369.853 127.053 372.026 132.645C373.888 138.347 371.541 146.784 369.627 152.226Z" fill="#FBC4D6"/>
<path d="M427.313 295.339C430.583 299.589 433.167 304.345 434.968 309.426C445.001 334.122 451.522 360.156 454.332 386.737C446.14 387.779 437.853 387.779 429.661 386.737C429.019 367.972 426.184 349.352 421.216 331.273C420.338 327.382 418.829 323.668 416.751 320.285C413.102 314.895 407.107 311.77 401.443 308.853C388.19 302.28 374.338 297.048 360.085 293.23C354.064 291.537 347.992 289.975 342.073 288.022C337.098 286.303 323.142 280.002 319.111 276.591C316.998 274.956 315.231 272.902 313.916 270.553C312.601 268.204 311.764 265.607 311.457 262.92C311.457 264.274 350.339 266.982 353.12 266.67C362.484 265.654 373.531 260.186 382.767 264.066C389.987 267.086 396.595 273.388 403.178 277.736C411.163 282.84 420.91 287.788 427.313 295.339Z" fill="#473F47"/>
<path d="M384.706 293.334L337.251 269.664L392.896 245.578L440.376 266.748L384.706 293.334Z" fill="#2DB716"/>
<path d="M312.426 182.198C312.426 183.109 312.197 183.994 312.095 184.802C310.691 198.134 311.967 211.206 312.452 224.46C312.758 232.662 313.804 248.286 322.351 252.478C338.322 260.29 369.143 257.321 369.143 257.321C372.716 256.737 376.368 256.887 379.884 257.764C381.797 258.363 383.558 259.378 385.42 260.108C392.156 262.712 399.682 261.41 406.775 260.108C407.997 259.96 409.177 259.561 410.245 258.936C411.483 257.814 412.238 256.24 412.348 254.554C412.458 252.868 411.913 251.206 410.832 249.926C408.529 247.457 405.535 245.774 402.259 245.109C393.302 242.125 383.708 241.746 374.552 244.015C373.381 244.418 372.189 244.748 370.98 245.005C369.563 245.239 368.128 245.344 366.693 245.317H355.825C343.323 245.317 331.536 245.473 329.648 230.553C328.951 225.027 328.814 219.442 329.24 213.888C329.98 203.862 332.556 193.915 332.021 183.89C331.988 180.711 331.21 177.586 329.75 174.776C329.01 173.382 327.932 172.204 326.619 171.356C325.305 170.508 323.801 170.018 322.249 169.933C320.642 170.056 319.093 170.599 317.752 171.512C316.411 172.424 315.324 173.674 314.595 175.141C313.465 177.342 312.731 179.732 312.426 182.198Z" fill="#FBC4D6"/>
<path d="M459.92 218.991L393.585 253.442L384.706 293.334L440.376 266.748L459.92 218.991Z" fill="#2DB716"/>
<path d="M372.893 137.853C372.82 135.374 371.92 132.994 370.342 131.108C369.54 130.159 368.592 129.35 367.535 128.713C366.056 127.827 365.698 127.749 364.729 129.182C363.479 131.03 363.071 133.192 361.922 135.118C360.666 137.256 358.914 139.044 356.82 140.326C354.466 141.817 351.729 142.552 348.962 142.436C347.862 142.266 346.744 142.266 345.645 142.436C345.276 142.507 344.926 142.661 344.622 142.886C344.318 143.111 344.066 143.402 343.884 143.738C343.621 144.712 343.526 145.725 343.604 146.732C343.374 149.336 340.848 151.185 339.445 153.45C338.042 155.716 337.634 159.075 335.95 161.496C335.637 161.982 335.206 162.377 334.7 162.642C333.5 163.163 332.148 162.486 330.898 162.252C327.199 161.601 324.213 165.116 321.05 167.251C314.697 171.522 306.38 170.428 298.879 169.152C296.582 168.868 294.344 168.218 292.245 167.225C289.979 165.86 287.966 164.097 286.3 162.017C283.519 158.892 280.764 155.716 278.034 152.539C277.02 151.522 276.213 150.309 275.661 148.971C275.369 148.039 275.291 147.05 275.432 146.081C275.681 144.273 276.206 142.516 276.988 140.873C278.978 136.316 281.3 131.369 285.79 129.312C290.281 127.255 295.587 128.791 300.537 128.27C301.14 128.269 301.728 128.078 302.221 127.723C302.615 127.269 302.895 126.724 303.037 126.135C305.104 119.13 307.681 111.527 313.855 107.907C318.613 105.575 323.976 104.854 329.163 105.85C334.299 106.841 339.539 107.147 344.752 106.762C347.303 106.345 349.855 105.486 352.406 104.965C358.372 103.612 364.617 104.538 369.959 107.569C372.596 109.17 374.801 111.414 376.377 114.1C377.954 116.787 378.852 119.83 378.991 122.958C378.889 124.18 378.889 125.408 378.991 126.63C379.17 127.775 379.654 128.895 379.833 130.041C379.937 131.031 379.835 132.033 379.533 132.98C379.231 133.927 378.736 134.798 378.081 135.536C377.425 136.274 376.624 136.862 375.73 137.261C374.836 137.66 373.869 137.862 372.893 137.853V137.853Z" fill="#FF681C"/>
<path d="M310.105 189.593C309.318 196.962 309.232 204.392 309.849 211.779C309.819 212.419 309.979 213.055 310.309 213.601C310.851 214.207 311.599 214.58 312.401 214.643C316.533 215.428 320.725 215.837 324.928 215.867C325.518 216.059 326.142 216.116 326.755 216.034C327.369 215.952 327.958 215.733 328.479 215.393C329.001 215.052 329.442 214.598 329.772 214.063C330.102 213.529 330.312 212.926 330.388 212.299C332.684 202.508 334.955 192.718 336.69 182.797C337.378 178.813 337.863 174.334 335.516 171.105C332.123 166.418 322.963 165.897 318.549 169.308C313.217 173.501 310.946 183.291 310.105 189.593Z" fill="white"/>
<path d="M382.308 177.094L389.528 194.749C389.885 195.435 390.028 196.217 389.936 196.988C389.753 197.621 389.399 198.19 388.916 198.629C385.389 202.435 381.202 205.543 376.567 207.794C372.294 203.898 368.824 199.171 366.362 193.889C363.963 187.614 364.499 180.635 365.214 173.943C365.647 169.699 365.494 156.054 372.562 161.34C377.486 164.96 380.088 171.652 382.308 177.094Z" fill="white"/>
<path d="M251.704 342.705C251.706 345.111 251.228 347.493 250.298 349.705C249.368 351.917 248.006 353.912 246.295 355.568C243.347 358.419 239.547 360.179 235.503 360.568C234.747 360.607 233.989 360.607 233.232 360.568L106.507 357.964C101.642 357.91 96.9892 355.921 93.5393 352.419C90.0894 348.918 88.1146 344.18 88.0351 339.215C88.0328 336.809 88.5112 334.427 89.4412 332.215C90.3712 330.003 91.7332 328.008 93.444 326.352C95.1787 324.65 97.2254 323.313 99.467 322.42C101.709 321.526 104.101 321.092 106.507 321.144H110.819C109.915 317.945 109.46 314.631 109.466 311.301C109.458 306.555 110.399 301.857 112.233 297.496C114.067 293.135 116.755 289.202 120.131 285.939C123.106 283.034 126.561 280.689 130.336 279.012C135.224 276.836 140.517 275.769 145.849 275.888L156.615 276.122C163.272 276.248 169.775 278.182 175.457 281.724C181.138 285.267 185.792 290.289 188.941 296.276C192.054 294.794 195.457 294.055 198.891 294.115H201.672C207.438 294.189 212.949 296.552 217.036 300.704C221.122 304.855 223.464 310.469 223.563 316.353V317.42C223.573 319.44 223.289 321.449 222.721 323.383L233.207 323.618C238.133 323.666 242.842 325.699 246.306 329.274C249.771 332.849 251.711 337.676 251.704 342.705V342.705Z" fill="white"/>
<path d="M235.503 360.568C234.747 360.607 233.989 360.607 233.232 360.568L106.507 357.964C101.642 357.91 96.9892 355.921 93.5393 352.419C90.0894 348.918 88.1146 344.18 88.0351 339.215C88.0328 336.809 88.5112 334.427 89.4412 332.215C90.3712 330.003 91.7332 328.008 93.444 326.352C88.4688 358.276 121.126 353.719 121.126 353.719H203.458L235.503 360.568Z" fill="url(#paint9_linear_2_3082)"/>
<path d="M120.004 324.998L110.819 321.43C109.915 318.231 109.46 314.917 109.466 311.588C109.458 306.842 110.399 302.144 112.233 297.783C114.067 293.421 116.755 289.488 120.131 286.225C123.106 283.32 126.561 280.975 130.336 279.299C104.9 301.588 120.004 324.998 120.004 324.998Z" fill="url(#paint10_linear_2_3082)"/>
<path d="M585.982 191.364C585.984 193.773 585.503 196.157 584.568 198.369C583.634 200.581 582.265 202.575 580.547 204.227C577.589 207.078 573.781 208.838 569.73 209.227C568.974 209.293 568.215 209.293 567.459 209.227L440.759 206.623C435.936 206.557 431.325 204.586 427.895 201.124C424.465 197.662 422.482 192.979 422.364 188.057C422.337 185.625 422.802 183.215 423.728 180.975C424.654 178.735 426.022 176.714 427.747 175.037C431.277 171.624 435.974 169.755 440.836 169.829H445.122C444.23 166.636 443.775 163.332 443.77 160.012C443.763 155.266 444.705 150.569 446.539 146.208C448.372 141.847 451.059 137.914 454.434 134.65C457.41 131.739 460.864 129.385 464.64 127.697C469.527 125.518 474.82 124.452 480.152 124.573L490.919 124.807C497.575 124.932 504.078 126.869 509.756 130.416C515.434 133.964 520.082 138.994 523.219 144.987C526.324 143.483 529.732 142.743 533.169 142.826H535.95C541.718 142.886 547.235 145.241 551.328 149.389C555.421 153.537 557.767 159.152 557.866 165.038V166.105C557.864 168.134 557.572 170.152 556.999 172.094L567.485 172.303C572.403 172.364 577.099 174.398 580.56 177.964C584.021 181.531 585.969 186.344 585.982 191.364V191.364Z" fill="white"/>
<path d="M569.755 209.227C569 209.293 568.24 209.293 567.485 209.227L440.785 206.623C435.957 206.564 431.339 204.596 427.904 201.133C424.468 197.67 422.482 192.983 422.364 188.057C422.337 185.625 422.802 183.215 423.728 180.975C424.654 178.735 426.022 176.714 427.747 175.037C422.644 206.987 455.429 202.404 455.429 202.404H537.761L569.755 209.227Z" fill="url(#paint11_linear_2_3082)"/>
<path d="M454.281 173.657L445.071 170.089C444.179 166.896 443.724 163.593 443.719 160.273C443.711 155.527 444.654 150.83 446.487 146.469C448.321 142.107 451.008 138.174 454.383 134.91C457.359 131.999 460.813 129.646 464.589 127.958C439.177 150.247 454.281 173.657 454.281 173.657Z" fill="url(#paint12_linear_2_3082)"/>
<path d="M345.823 142.488C345.454 142.559 345.105 142.713 344.801 142.938C344.496 143.163 344.244 143.454 344.063 143.79C343.8 144.764 343.705 145.777 343.782 146.784C343.553 149.388 341.027 151.237 339.624 153.502C338.22 155.768 337.812 159.127 336.128 161.548C335.816 162.034 335.385 162.429 334.878 162.694C333.679 163.215 332.327 162.538 331.077 162.304C327.377 161.653 324.392 165.168 321.228 167.303C314.876 171.574 306.558 170.48 299.057 169.204C296.697 168.923 294.397 168.255 292.245 167.225C289.979 165.86 287.966 164.097 286.3 162.017C283.519 158.892 280.764 155.716 278.034 152.539C277.02 151.522 276.213 150.309 275.661 148.971C275.369 148.039 275.291 147.05 275.432 146.081C276.622 145.348 277.857 144.696 279.131 144.128C283.042 141.986 287.614 141.473 291.888 142.696C295.307 144.05 297.73 147.149 300.665 149.362C304.756 152.286 309.734 153.63 314.707 153.153C319.68 152.676 324.325 150.409 327.811 146.758C329.097 145.029 330.607 143.487 332.301 142.175C335.337 140.483 341.512 140.743 345.823 142.488Z" fill="url(#paint13_linear_2_3082)"/>
<defs>
<linearGradient id="paint0_linear_2_3082" x1="510.054" y1="464.309" x2="498.018" y2="312.381" gradientUnits="userSpaceOnUse">
<stop offset="0.01"/>
<stop offset="0.13" stop-opacity="0.69"/>
<stop offset="0.25" stop-opacity="0.32"/>
<stop offset="1" stop-opacity="0"/>
</linearGradient>
<linearGradient id="paint1_linear_2_3082" x1="395.269" y1="382.493" x2="526.654" y2="322.596" gradientUnits="userSpaceOnUse">
<stop offset="0.01"/>
<stop offset="0.13" stop-opacity="0.69"/>
<stop offset="0.25" stop-opacity="0.32"/>
<stop offset="1" stop-opacity="0"/>
</linearGradient>
<linearGradient id="paint2_linear_2_3082" x1="294.618" y1="667.52" x2="238.736" y2="-301.512" gradientUnits="userSpaceOnUse">
<stop offset="0.01"/>
<stop offset="0.13" stop-opacity="0.69"/>
<stop offset="0.25" stop-opacity="0.32"/>
<stop offset="1" stop-opacity="0"/>
</linearGradient>
<linearGradient id="paint3_linear_2_3082" x1="452.342" y1="658.432" x2="396.433" y2="-310.626" gradientUnits="userSpaceOnUse">
<stop offset="0.01"/>
<stop offset="0.13" stop-opacity="0.69"/>
<stop offset="0.25" stop-opacity="0.32"/>
<stop offset="1" stop-opacity="0"/>
</linearGradient>
<linearGradient id="paint4_linear_2_3082" x1="428.436" y1="369.187" x2="378.932" y2="393.25" gradientUnits="userSpaceOnUse">
<stop offset="0.01"/>
<stop offset="0.13" stop-opacity="0.69"/>
<stop offset="0.25" stop-opacity="0.32"/>
<stop offset="1" stop-opacity="0"/>
</linearGradient>
<linearGradient id="paint5_linear_2_3082" x1="468.39" y1="434.363" x2="438.907" y2="369.373" gradientUnits="userSpaceOnUse">
<stop offset="0.01"/>
<stop offset="0.13" stop-opacity="0.69"/>
<stop offset="0.25" stop-opacity="0.32"/>
<stop offset="1" stop-opacity="0"/>
</linearGradient>
<linearGradient id="paint6_linear_2_3082" x1="422.287" y1="215.32" x2="236.695" y2="467.355" gradientUnits="userSpaceOnUse">
<stop offset="0.01"/>
<stop offset="0.13" stop-opacity="0.69"/>
<stop offset="0.25" stop-opacity="0.32"/>
<stop offset="1" stop-opacity="0"/>
</linearGradient>
<linearGradient id="paint7_linear_2_3082" x1="378.353" y1="189.15" x2="264.4" y2="351.784" gradientUnits="userSpaceOnUse">
<stop offset="0.01"/>
<stop offset="0.13" stop-opacity="0.69"/>
<stop offset="0.25" stop-opacity="0.32"/>
<stop offset="1" stop-opacity="0"/>
</linearGradient>
<linearGradient id="paint8_linear_2_3082" x1="356.59" y1="137.202" x2="332.368" y2="189.063" gradientUnits="userSpaceOnUse">
<stop offset="0.01"/>
<stop offset="0.13" stop-opacity="0.69"/>
<stop offset="0.25" stop-opacity="0.32"/>
<stop offset="1" stop-opacity="0"/>
</linearGradient>
<linearGradient id="paint9_linear_2_3082" x1="166.974" y1="418.636" x2="154.911" y2="266.682" gradientUnits="userSpaceOnUse">
<stop offset="0.01"/>
<stop offset="0.13" stop-opacity="0.69"/>
<stop offset="0.25" stop-opacity="0.32"/>
<stop offset="1" stop-opacity="0"/>
</linearGradient>
<linearGradient id="paint10_linear_2_3082" x1="52.1632" y1="336.794" x2="183.573" y2="276.922" gradientUnits="userSpaceOnUse">
<stop offset="0.01"/>
<stop offset="0.13" stop-opacity="0.69"/>
<stop offset="0.25" stop-opacity="0.32"/>
<stop offset="1" stop-opacity="0"/>
</linearGradient>
<linearGradient id="paint11_linear_2_3082" x1="501.252" y1="267.294" x2="489.189" y2="115.367" gradientUnits="userSpaceOnUse">
<stop offset="0.01"/>
<stop offset="0.13" stop-opacity="0.69"/>
<stop offset="0.25" stop-opacity="0.32"/>
<stop offset="1" stop-opacity="0"/>
</linearGradient>
<linearGradient id="paint12_linear_2_3082" x1="386.441" y1="185.479" x2="517.826" y2="125.582" gradientUnits="userSpaceOnUse">
<stop offset="0.01"/>
<stop offset="0.13" stop-opacity="0.69"/>
<stop offset="0.25" stop-opacity="0.32"/>
<stop offset="1" stop-opacity="0"/>
</linearGradient>
<linearGradient id="paint13_linear_2_3082" x1="376.133" y1="199.488" x2="223.099" y2="85.1656" gradientUnits="userSpaceOnUse">
<stop offset="0.01"/>
<stop offset="0.13" stop-opacity="0.69"/>
<stop offset="0.25" stop-opacity="0.32"/>
<stop offset="1" stop-opacity="0"/>
</linearGradient>
</defs>
</svg>
